<svg width="880" height="209" viewBox="0 0 880 209" fill="none" xmlns="http://www.w3.org/2000/svg">
<g clip-path="url(#clip0_43_2)">
<mask id="path-1-outside-1_43_2" maskUnits="userSpaceOnUse" x="-19" y="27" width="924" height="156" fill="black">
<rect fill="white" x="-19" y="27" width="924" height="156"/>
<path d="M103.465 134.933C103.465 144.5 99.9214 152.295 92.8348 158.319C86.3387 164.106 78.1891 167 68.3859 167H7.26379V81.2519H-1.06299L7.26379 45.8188H69.8032C78.5434 45.8188 85.8662 48.5943 91.7718 54.1455C97.6773 59.6967 100.63 66.8424 100.63 75.5826C100.63 87.7479 95.4922 96.8424 85.2166 102.866C91.9489 107.472 96.6143 111.902 99.2127 116.153C102.047 120.996 103.465 127.256 103.465 134.933ZM63.4253 85.5038C63.4253 80.7794 59.1733 78.4172 50.6694 78.4172H43.7599V92.5905H52.0867C59.6457 92.5905 63.4253 90.2283 63.4253 85.5038ZM62.3623 124.657C62.3623 119.461 58.1694 116.862 49.7835 116.862H43.7599V133.161H52.0867C58.9371 133.161 62.3623 130.327 62.3623 124.657ZM177.574 76.8227L167.298 114.913C165.881 114.441 164.227 114.205 162.338 114.205C160.448 114.205 158.735 114.677 157.2 115.622C155.664 116.449 154.365 117.63 153.302 119.165C152.239 120.583 151.412 122.236 150.822 124.126C150.349 126.016 150.113 127.965 150.113 129.972V167H115.743V111.724H107.416L115.743 78.4172H150.113V87.0983C152.475 83.7912 156.137 81.1928 161.097 79.303C165.822 77.4133 170.251 76.5274 174.385 76.6456L177.574 76.8227ZM280.178 132.984L271.674 167H236.241V154.598L228.622 167H224.37C210.552 167.591 199.095 163.752 190 155.484C180.788 147.217 176.181 136.291 176.181 122.709C176.181 109.48 180.138 98.555 188.052 89.933C196.083 81.1928 206.536 76.8227 219.41 76.8227C226.851 76.8227 233.524 78.7125 239.43 82.492L240.847 78.4172H271.674V132.984H280.178ZM236.241 132.807V118.634C236.241 116.153 235.059 114.087 232.697 112.433C230.335 110.661 227.855 109.776 225.256 109.776C222.067 109.776 219.233 111.016 216.752 113.496C214.272 115.858 213.032 118.634 213.032 121.823C213.032 129.146 217.756 132.807 227.205 132.807H236.241ZM423.46 78.4172L394.228 167H360.212L349.228 128.024L338.066 167H304.051L275.527 78.4172H312.2L323.185 122.177L335.763 78.4172H363.047L376.511 122.177L385.37 78.4172H423.46ZM470.931 132.984L462.25 167H426.994V74.8739H418.667L429.474 41.0353H462.25V132.984H470.931Z"/>
<path d="M664.439 93.8306C664.439 105.996 660.6 116.744 652.923 126.075C644.773 135.76 634.616 140.602 622.45 140.602H610.757V167H572.844V81.7834H564.517L572.844 45.8188H617.844C631.899 45.8188 643.179 50.3069 651.683 59.2833C660.187 68.1416 664.439 79.6574 664.439 93.8306ZM626.88 93.2991C626.88 90.7007 626.23 88.3385 624.931 86.2125C623.632 83.9684 621.742 82.8464 619.261 82.8464H610.935V104.992H618.198C621.033 104.992 623.218 103.693 624.754 101.094C626.171 98.8503 626.88 96.2519 626.88 93.2991ZM716.956 41.0353L708.806 71.1534H673.55L681.346 41.0353H716.956ZM716.956 132.984L708.452 167H673.019V111.547H664.692L673.196 78.4172H708.452V132.984H716.956ZM782.901 80.1889L774.398 112.61C771.917 111.193 769.555 110.484 767.311 110.484C762.823 110.484 759.22 111.724 756.504 114.205C753.787 116.567 752.429 119.933 752.429 124.303C752.429 132.216 757.272 136.173 766.957 136.173C769.909 136.173 772.272 135.937 774.043 135.465L780.598 166.823C774.338 167.886 769.791 168.417 766.957 168.417C752.429 168.417 740.618 164.047 731.523 155.307C722.429 146.567 717.882 134.992 717.882 120.583C717.882 108.653 722.842 98.2598 732.764 89.4015C742.331 80.8975 753.197 76.6456 765.362 76.6456C771.268 76.6456 777.114 77.8267 782.901 80.1889ZM881.537 167H842.561L826.616 131.744V167H791.36V74.8739H783.033L791.36 41.0353H826.616V105.169L840.08 78.4172H877.285L856.025 118.457L881.537 167Z"/>
</mask>
<path d="M92.8348 158.319L83.8706 147.773L83.7479 147.877L83.6276 147.984L92.8348 158.319ZM7.26379 167H-6.57727V180.841H7.26379V167ZM7.26379 81.2519H21.1048V67.4108H7.26379V81.2519ZM-1.06299 81.2519L-14.537 78.0855L-18.5338 95.0929H-1.06299V81.2519ZM7.26379 45.8188V31.9777H-3.70167L-6.21022 42.6524L7.26379 45.8188ZM91.7718 54.1455L82.2919 64.2305H82.2919L91.7718 54.1455ZM85.2166 102.866L78.2169 90.9254L59.3868 101.964L77.4008 114.289L85.2166 102.866ZM99.2127 116.153L111.158 109.161L111.091 109.048L111.023 108.936L99.2127 116.153ZM43.7599 78.4172V64.5762H29.9188V78.4172H43.7599ZM43.7599 92.5905H29.9188V106.432H43.7599V92.5905ZM43.7599 116.862V103.021H29.9188V116.862H43.7599ZM43.7599 133.161H29.9188V147.002H43.7599V133.161ZM103.465 134.933H89.6236C89.6236 140.573 87.763 144.464 83.8706 147.773L92.8348 158.319L101.799 168.865C112.08 160.126 117.306 148.427 117.306 134.933H103.465ZM92.8348 158.319L83.6276 147.984C79.9913 151.224 75.2554 153.159 68.3859 153.159V167V180.841C81.1228 180.841 92.6861 176.989 102.042 168.653L92.8348 158.319ZM68.3859 167V153.159H7.26379V167V180.841H68.3859V167ZM7.26379 167H21.1048V81.2519H7.26379H-6.57727V167H7.26379ZM7.26379 81.2519V67.4108H-1.06299V81.2519V95.0929H7.26379V81.2519ZM-1.06299 81.2519L12.411 84.4183L20.7378 48.9851L7.26379 45.8188L-6.21022 42.6524L-14.537 78.0855L-1.06299 81.2519ZM7.26379 45.8188V59.6598H69.8032V45.8188V31.9777H7.26379V45.8188ZM69.8032 45.8188V59.6598C75.3227 59.6598 79.1652 61.2914 82.2919 64.2305L91.7718 54.1455L101.252 44.0606C92.5673 35.8973 81.7641 31.9777 69.8032 31.9777V45.8188ZM91.7718 54.1455L82.2919 64.2305C85.1801 66.9455 86.789 70.3278 86.789 75.5826H100.63H114.471C114.471 63.357 110.174 52.448 101.252 44.0606L91.7718 54.1455ZM100.63 75.5826H86.789C86.789 82.9651 84.1443 87.4508 78.2169 90.9254L85.2166 102.866L92.2163 114.807C106.84 106.234 114.471 92.5307 114.471 75.5826H100.63ZM85.2166 102.866L77.4008 114.289C83.4219 118.409 86.2708 121.519 87.4024 123.371L99.2127 116.153L111.023 108.936C106.958 102.284 100.476 96.5358 93.0325 91.4429L85.2166 102.866ZM99.2127 116.153L87.2677 123.146C88.4855 125.226 89.6236 128.846 89.6236 134.933H103.465H117.306C117.306 125.666 115.609 116.766 111.158 109.161L99.2127 116.153ZM63.4253 85.5038H77.2663C77.2663 82.1806 76.4952 78.6131 74.4966 75.2823C72.5105 71.9721 69.7651 69.6491 66.9581 68.0896C61.7625 65.2032 55.7493 64.5762 50.6694 64.5762V78.4172V92.2583C52.1943 92.2583 53.1765 92.3674 53.7298 92.4698C54.3113 92.5775 54.1155 92.622 53.5145 92.2881C52.8335 91.9098 51.6826 91.0632 50.7594 89.5246C49.8239 87.9654 49.5842 86.4649 49.5842 85.5038H63.4253ZM50.6694 78.4172V64.5762H43.7599V78.4172V92.2583H50.6694V78.4172ZM43.7599 78.4172H29.9188V92.5905H43.7599H57.601V78.4172H43.7599ZM43.7599 92.5905V106.432H52.0867V92.5905V78.7494H43.7599V92.5905ZM52.0867 92.5905V106.432C56.86 106.432 62.7897 105.766 67.9264 102.556C74.1476 98.6677 77.2663 92.2928 77.2663 85.5038H63.4253H49.5842C49.5842 84.8142 49.7332 83.5359 50.5039 82.0908C51.2936 80.61 52.3761 79.6308 53.2549 79.0816C54.0406 78.5905 54.4962 78.5408 54.2244 78.5974C53.967 78.651 53.2979 78.7494 52.0867 78.7494V92.5905ZM62.3623 124.657H76.2033C76.2033 117.579 72.9346 111.028 66.5086 107.046C61.177 103.742 54.9571 103.021 49.7835 103.021V116.862V130.703C51.2074 130.703 52.0654 130.817 52.4867 130.904C52.9235 130.994 52.605 130.996 51.9266 130.576C51.1555 130.098 50.1384 129.201 49.3865 127.804C48.6519 126.438 48.5212 125.247 48.5212 124.657H62.3623ZM49.7835 116.862V103.021H43.7599V116.862V130.703H49.7835V116.862ZM43.7599 116.862H29.9188V133.161H43.7599H57.601V116.862H43.7599ZM43.7599 133.161V147.002H52.0867V133.161V119.32H43.7599V133.161ZM52.0867 133.161V147.002C57.0752 147.002 63.3912 146.024 68.618 141.698C74.3464 136.958 76.2033 130.388 76.2033 124.657H62.3623H48.5212C48.5212 124.709 48.511 124.126 48.8813 123.207C49.2858 122.203 49.9947 121.178 50.9688 120.372C52.7704 118.881 53.9485 119.32 52.0867 119.32V133.161ZM177.574 76.8227L190.937 80.4277L195.382 63.9497L178.342 63.003L177.574 76.8227ZM167.298 114.913L162.921 128.044L176.84 132.684L180.662 118.518L167.298 114.913ZM157.2 115.622L163.762 127.809L164.114 127.619L164.454 127.41L157.2 115.622ZM153.302 119.165L164.375 127.47L164.533 127.26L164.682 127.044L153.302 119.165ZM150.822 124.126L137.611 119.997L137.491 120.38L137.394 120.769L150.822 124.126ZM150.113 167V180.841H163.954V167H150.113ZM115.743 167H101.902V180.841H115.743V167ZM115.743 111.724H129.584V97.8833H115.743V111.724ZM107.416 111.724L93.9885 108.367L89.689 125.565H107.416V111.724ZM115.743 78.4172V64.5762H104.936L102.315 75.0603L115.743 78.4172ZM150.113 78.4172H163.954V64.5762H150.113V78.4172ZM150.113 87.0983H136.272V130.289L161.376 95.1433L150.113 87.0983ZM161.097 79.303L166.025 92.2373L166.132 92.1966L166.238 92.1541L161.097 79.303ZM174.385 76.6456L175.153 62.8258L174.967 62.8155L174.78 62.8101L174.385 76.6456ZM177.574 76.8227L164.211 73.2177L153.935 111.308L167.298 114.913L180.662 118.518L190.937 80.4277L177.574 76.8227ZM167.298 114.913L171.675 101.783C168.53 100.734 165.34 100.364 162.338 100.364V114.205V128.046C162.711 128.046 162.937 128.069 163.038 128.084C163.137 128.098 163.086 128.099 162.921 128.044L167.298 114.913ZM162.338 114.205V100.364C158.016 100.364 153.77 101.481 149.946 103.834L157.2 115.622L164.454 127.41C164.126 127.611 163.737 127.786 163.317 127.902C162.9 128.017 162.557 128.046 162.338 128.046V114.205ZM157.2 115.622L150.638 103.435C147.044 105.371 144.138 108.086 141.922 111.287L153.302 119.165L164.682 127.044C164.654 127.085 164.56 127.21 164.384 127.369C164.206 127.531 163.993 127.684 163.762 127.809L157.2 115.622ZM153.302 119.165L142.229 110.861C140.117 113.677 138.616 116.779 137.611 119.997L150.822 124.126L164.033 128.254C164.208 127.693 164.361 127.488 164.375 127.47L153.302 119.165ZM150.822 124.126L137.394 120.769C136.639 123.79 136.272 126.868 136.272 129.972H150.113H163.954C163.954 129.061 164.06 128.241 164.25 127.483L150.822 124.126ZM150.113 129.972H136.272V167H150.113H163.954V129.972H150.113ZM150.113 167V153.159H115.743V167V180.841H150.113V167ZM115.743 167H129.584V111.724H115.743H101.902V167H115.743ZM115.743 111.724V97.8833H107.416V111.724V125.565H115.743V111.724ZM107.416 111.724L120.844 115.081L129.171 81.7742L115.743 78.4172L102.315 75.0603L93.9885 108.367L107.416 111.724ZM115.743 78.4172V92.2583H150.113V78.4172V64.5762H115.743V78.4172ZM150.113 78.4172H136.272V87.0983H150.113H163.954V78.4172H150.113ZM150.113 87.0983L161.376 95.1433C161.735 94.641 162.842 93.4499 166.025 92.2373L161.097 79.303L156.17 66.3687C149.432 68.9357 143.216 72.9415 138.85 79.0534L150.113 87.0983ZM161.097 79.303L166.238 92.1541C169.598 90.8101 172.132 90.4279 173.99 90.481L174.385 76.6456L174.78 62.8101C168.37 62.627 162.046 64.0165 155.957 66.4519L161.097 79.303ZM174.385 76.6456L173.617 90.4653L176.806 90.6425L177.574 76.8227L178.342 63.003L175.153 62.8258L174.385 76.6456ZM280.178 132.984L293.605 136.341L297.905 119.143H280.178V132.984ZM271.674 167V180.841H282.48L285.102 170.357L271.674 167ZM236.241 167H222.4V180.841H236.241V167ZM236.241 154.598H250.082V105.623L224.447 147.354L236.241 154.598ZM228.622 167V180.841H236.364L240.416 174.245L228.622 167ZM224.37 167V153.159H224.075L223.78 153.172L224.37 167ZM190 155.484L199.311 145.243L199.278 145.213L199.245 145.183L190 155.484ZM188.052 89.933L177.86 80.5678L177.854 80.5739L188.052 89.933ZM239.43 82.492L231.968 94.15L246.741 103.604L252.502 87.0391L239.43 82.492ZM240.847 78.4172V64.5762H231.007L227.774 73.8701L240.847 78.4172ZM271.674 78.4172H285.515V64.5762H271.674V78.4172ZM271.674 132.984H257.833V146.825H271.674V132.984ZM236.241 132.807V146.648H250.082V132.807H236.241ZM232.697 112.433L224.393 123.506L224.574 123.642L224.76 123.772L232.697 112.433ZM216.752 113.496L226.298 123.519L226.42 123.402L226.539 123.283L216.752 113.496ZM280.178 132.984L266.75 129.627L258.246 163.643L271.674 167L285.102 170.357L293.605 136.341L280.178 132.984ZM271.674 167V153.159H236.241V167V180.841H271.674V167ZM236.241 167H250.082V154.598H236.241H222.4V167H236.241ZM236.241 154.598L224.447 147.354L216.829 159.755L228.622 167L240.416 174.245L248.034 161.843L236.241 154.598ZM228.622 167V153.159H224.37V167V180.841H228.622V167ZM224.37 167L223.78 153.172C213.107 153.628 205.359 150.741 199.311 145.243L190 155.484L180.69 165.726C192.831 176.763 207.996 181.553 224.961 180.828L224.37 167ZM190 155.484L199.245 145.183C193.262 139.814 190.023 132.789 190.023 122.709H176.181H162.34C162.34 139.794 168.314 154.62 180.756 165.785L190 155.484ZM176.181 122.709H190.023C190.023 112.46 192.988 105.024 198.249 99.292L188.052 89.933L177.854 80.5739C167.288 92.0862 162.34 106.5 162.34 122.709H176.181ZM188.052 89.933L198.243 99.2982C203.415 93.6695 210.043 90.6638 219.41 90.6638V76.8227V62.9817C203.028 62.9817 188.751 68.7161 177.86 80.5678L188.052 89.933ZM219.41 76.8227V90.6638C224.376 90.6638 228.429 91.8848 231.968 94.15L239.43 82.492L246.891 70.8341C238.619 65.5402 229.326 62.9817 219.41 62.9817V76.8227ZM239.43 82.492L252.502 87.0391L253.92 82.9643L240.847 78.4172L227.774 73.8701L226.357 77.9449L239.43 82.492ZM240.847 78.4172V92.2583H271.674V78.4172V64.5762H240.847V78.4172ZM271.674 78.4172H257.833V132.984H271.674H285.515V78.4172H271.674ZM271.674 132.984V146.825H280.178V132.984V119.143H271.674V132.984ZM236.241 132.807H250.082V118.634H236.241H222.4V132.807H236.241ZM236.241 118.634H250.082C250.082 110.854 246.005 104.854 240.635 101.094L232.697 112.433L224.76 123.772C224.615 123.671 223.951 123.165 223.337 122.09C222.682 120.943 222.4 119.697 222.4 118.634H236.241ZM232.697 112.433L241.002 101.36C236.585 98.0478 231.25 95.9345 225.256 95.9345V109.776V123.617C225.115 123.617 224.962 123.604 224.805 123.577C224.648 123.55 224.515 123.512 224.41 123.475C224.195 123.398 224.19 123.354 224.393 123.506L232.697 112.433ZM225.256 109.776V95.9345C218.012 95.9345 211.756 98.9179 206.965 103.709L216.752 113.496L226.539 123.283C226.721 123.101 226.647 123.228 226.286 123.386C226.115 123.461 225.922 123.524 225.722 123.565C225.523 123.606 225.362 123.617 225.256 123.617V109.776ZM216.752 113.496L207.207 103.473C202.21 108.232 199.191 114.544 199.191 121.823H213.032H226.873C226.873 122.077 226.811 122.52 226.599 122.996C226.396 123.45 226.199 123.613 226.298 123.519L216.752 113.496ZM213.032 121.823H199.191C199.191 128.694 201.588 135.957 208.097 141.001C213.936 145.527 221.077 146.648 227.205 146.648V132.807V118.966C225.692 118.966 224.835 118.815 224.466 118.719C224.118 118.629 224.453 118.655 225.054 119.121C225.356 119.355 225.675 119.662 225.969 120.043C226.264 120.424 226.482 120.809 226.633 121.16C226.932 121.856 226.873 122.185 226.873 121.823H213.032ZM227.205 132.807V146.648H236.241V132.807V118.966H227.205V132.807ZM423.46 78.4172L436.604 82.7547L442.603 64.5762H423.46V78.4172ZM394.228 167V180.841H404.236L407.372 171.337L394.228 167ZM360.212 167L346.89 170.754L349.733 180.841H360.212V167ZM349.228 128.024L362.55 124.269L349.334 77.375L335.922 124.213L349.228 128.024ZM338.066 167V180.841H348.5L351.373 170.81L338.066 167ZM304.051 167L290.876 171.242L293.967 180.841H304.051V167ZM275.527 78.4172V64.5762H256.529L262.352 82.6595L275.527 78.4172ZM312.2 78.4172L325.625 75.0475L322.996 64.5762H312.2V78.4172ZM323.185 122.177L309.76 125.547L322.28 175.425L336.487 126.001L323.185 122.177ZM335.763 78.4172V64.5762H325.34L322.461 74.5935L335.763 78.4172ZM363.047 78.4172L376.276 74.3468L373.269 64.5762H363.047V78.4172ZM376.511 122.177L363.282 126.248L390.077 124.923L376.511 122.177ZM385.37 78.4172V64.5762H374.05L371.804 75.6711L385.37 78.4172ZM423.46 78.4172L410.316 74.0797L381.084 162.663L394.228 167L407.372 171.337L436.604 82.7547L423.46 78.4172ZM394.228 167V153.159H360.212V167V180.841H394.228V167ZM360.212 167L373.534 163.246L362.55 124.269L349.228 128.024L335.906 131.778L346.89 170.754L360.212 167ZM349.228 128.024L335.922 124.213L324.76 163.19L338.066 167L351.373 170.81L362.534 131.834L349.228 128.024ZM338.066 167V153.159H304.051V167V180.841H338.066V167ZM304.051 167L317.226 162.758L288.702 74.1749L275.527 78.4172L262.352 82.6595L290.876 171.242L304.051 167ZM275.527 78.4172V92.2583H312.2V78.4172V64.5762H275.527V78.4172ZM312.2 78.4172L298.776 81.787L309.76 125.547L323.185 122.177L336.609 118.807L325.625 75.0475L312.2 78.4172ZM323.185 122.177L336.487 126.001L349.066 82.241L335.763 78.4172L322.461 74.5935L309.882 118.353L323.185 122.177ZM335.763 78.4172V92.2583H363.047V78.4172V64.5762H335.763V78.4172ZM363.047 78.4172L349.818 82.4877L363.282 126.248L376.511 122.177L389.74 118.107L376.276 74.3468L363.047 78.4172ZM376.511 122.177L390.077 124.923L398.936 81.1634L385.37 78.4172L371.804 75.6711L362.945 119.431L376.511 122.177ZM385.37 78.4172V92.2583H423.46V78.4172V64.5762H385.37V78.4172ZM470.931 132.984L484.342 136.407L488.748 119.143H470.931V132.984ZM462.25 167V180.841H473.002L475.661 170.423L462.25 167ZM426.994 167H413.153V180.841H426.994V167ZM426.994 74.8739H440.835V61.0328H426.994V74.8739ZM418.667 74.8739L405.482 70.663L399.717 88.715H418.667V74.8739ZM429.474 41.0353V27.1942H419.365L416.289 36.8244L429.474 41.0353ZM462.25 41.0353H476.091V27.1942H462.25V41.0353ZM462.25 132.984H448.409V146.825H462.25V132.984ZM470.931 132.984L457.52 129.562L448.839 163.577L462.25 167L475.661 170.423L484.342 136.407L470.931 132.984ZM462.25 167V153.159H426.994V167V180.841H462.25V167ZM426.994 167H440.835V74.8739H426.994H413.153V167H426.994ZM426.994 74.8739V61.0328H418.667V74.8739V88.715H426.994V74.8739ZM418.667 74.8739L431.852 79.0848L442.659 45.2462L429.474 41.0353L416.289 36.8244L405.482 70.663L418.667 74.8739ZM429.474 41.0353V54.8763H462.25V41.0353V27.1942H429.474V41.0353ZM462.25 41.0353H448.409V132.984H462.25H476.091V41.0353H462.25ZM462.25 132.984V146.825H470.931V132.984V119.143H462.25V132.984ZM652.923 126.075L663.513 134.986L663.563 134.928L663.611 134.869L652.923 126.075ZM610.758 140.602V126.761H596.916V140.602H610.758ZM610.758 167V180.841H624.599V167H610.758ZM572.844 167H559.003V180.841H572.844V167ZM572.844 81.7834H586.685V67.9423H572.844V81.7834ZM564.517 81.7834L551.033 78.6614L547.105 95.6244H564.517V81.7834ZM572.844 45.8188V31.9777H561.841L559.36 42.6968L572.844 45.8188ZM651.683 59.2833L641.635 68.8025L641.666 68.8357L641.698 68.8687L651.683 59.2833ZM624.931 86.2125L612.952 93.1474L613.035 93.2896L613.12 93.4299L624.931 86.2125ZM610.935 82.8464V69.0053H597.094V82.8464H610.935ZM610.935 104.992H597.094V118.833H610.935V104.992ZM624.754 101.094L613.051 93.7034L612.942 93.8766L612.837 94.053L624.754 101.094ZM664.439 93.8306H650.598C650.598 102.812 647.858 110.446 642.235 117.281L652.923 126.075L663.611 134.869C673.342 123.042 678.28 109.18 678.28 93.8306H664.439ZM652.923 126.075L642.332 117.163C636.69 123.868 630.345 126.761 622.45 126.761V140.602V154.443C638.886 154.443 652.856 147.652 663.513 134.986L652.923 126.075ZM622.45 140.602V126.761H610.758V140.602V154.443H622.45V140.602ZM610.758 140.602H596.916V167H610.758H624.599V140.602H610.758ZM610.758 167V153.159H572.844V167V180.841H610.758V167ZM572.844 167H586.685V81.7834H572.844H559.003V167H572.844ZM572.844 81.7834V67.9423H564.517V81.7834V95.6244H572.844V81.7834ZM564.517 81.7834L578.002 84.9054L586.328 48.9408L572.844 45.8188L559.36 42.6968L551.033 78.6614L564.517 81.7834ZM572.844 45.8188V59.6598H617.844V45.8188V31.9777H572.844V45.8188ZM617.844 45.8188V59.6598C628.669 59.6598 636.113 62.9735 641.635 68.8025L651.683 59.2833L661.731 49.7642C650.245 37.6404 635.13 31.9777 617.844 31.9777V45.8188ZM651.683 59.2833L641.698 68.8687C647.345 74.751 650.598 82.6373 650.598 93.8306H664.439H678.28C678.28 76.6774 673.028 61.5322 661.667 49.698L651.683 59.2833ZM626.88 93.2991H640.721C640.721 88.2683 639.427 83.3899 636.741 78.9951L624.931 86.2125L613.12 93.4299C613.117 93.4244 613.104 93.4017 613.087 93.364C613.071 93.326 613.057 93.286 613.047 93.2487C613.036 93.2116 613.034 93.1907 613.034 93.1918C613.034 93.1935 613.039 93.2273 613.039 93.2991H626.88ZM624.931 86.2125L636.909 79.2776C633.274 72.998 626.951 69.0053 619.261 69.0053V82.8464V96.6874C618.341 96.6874 616.931 96.4549 615.473 95.5892C614.044 94.7411 613.274 93.7038 612.952 93.1474L624.931 86.2125ZM619.261 82.8464V69.0053H610.935V82.8464V96.6874H619.261V82.8464ZM610.935 82.8464H597.094V104.992H610.935H624.776V82.8464H610.935ZM610.935 104.992V118.833H618.198V104.992V91.151H610.935V104.992ZM618.198 104.992V118.833C626.302 118.833 632.84 114.616 636.67 108.136L624.754 101.094L612.837 94.053C613.03 93.7275 613.643 92.8618 614.889 92.1208C616.176 91.3556 617.42 91.151 618.198 91.151V104.992ZM624.754 101.094L636.456 108.485C639.424 103.786 640.721 98.5643 640.721 93.2991H626.88H613.039C613.039 93.6625 612.996 93.8163 612.995 93.8207C612.993 93.8259 612.997 93.8102 613.01 93.7809C613.023 93.7515 613.038 93.7241 613.051 93.7034L624.754 101.094ZM716.956 41.0353L730.316 44.6505L735.04 27.1942H716.956V41.0353ZM708.806 71.1534V84.9945H719.4L722.167 74.7686L708.806 71.1534ZM673.55 71.1534L660.151 67.6853L655.671 84.9945H673.55V71.1534ZM681.346 41.0353V27.1942H670.631L667.946 37.5672L681.346 41.0353ZM716.956 132.984L730.384 136.341L734.683 119.143H716.956V132.984ZM708.452 167V180.841H719.259L721.88 170.357L708.452 167ZM673.019 167H659.178V180.841H673.019V167ZM673.019 111.547H686.86V97.7061H673.019V111.547ZM664.692 111.547L651.286 108.106L646.849 125.388H664.692V111.547ZM673.196 78.4172V64.5762H662.459L659.789 74.976L673.196 78.4172ZM708.452 78.4172H722.293V64.5762H708.452V78.4172ZM708.452 132.984H694.611V146.825H708.452V132.984ZM716.956 41.0353L703.595 37.4201L695.446 67.5382L708.806 71.1534L722.167 74.7686L730.316 44.6505L716.956 41.0353ZM708.806 71.1534V57.3124H673.55V71.1534V84.9945H708.806V71.1534ZM673.55 71.1534L686.95 74.6215L694.745 44.5034L681.346 41.0353L667.946 37.5672L660.151 67.6853L673.55 71.1534ZM681.346 41.0353V54.8763H716.956V41.0353V27.1942H681.346V41.0353ZM716.956 132.984L703.528 129.627L695.024 163.643L708.452 167L721.88 170.357L730.384 136.341L716.956 132.984ZM708.452 167V153.159H673.019V167V180.841H708.452V167ZM673.019 167H686.86V111.547H673.019H659.178V167H673.019ZM673.019 111.547V97.7061H664.692V111.547V125.388H673.019V111.547ZM664.692 111.547L678.098 114.988L686.602 81.8585L673.196 78.4172L659.789 74.976L651.286 108.106L664.692 111.547ZM673.196 78.4172V92.2583H708.452V78.4172V64.5762H673.196V78.4172ZM708.452 78.4172H694.611V132.984H708.452H722.293V78.4172H708.452ZM708.452 132.984V146.825H716.956V132.984V119.143H708.452V132.984ZM782.901 80.1889L796.29 83.7005L799.369 71.9607L788.132 67.3742L782.901 80.1889ZM774.398 112.61L767.53 124.628L783.205 133.585L787.786 116.122L774.398 112.61ZM756.504 114.205L765.586 124.649L765.713 124.539L765.836 124.426L756.504 114.205ZM774.043 135.465L787.591 132.632L784.601 118.325L770.477 122.091L774.043 135.465ZM780.598 166.823L782.916 180.469L797.088 178.062L794.147 163.991L780.598 166.823ZM731.523 155.307L721.933 165.287V165.287L731.523 155.307ZM732.764 89.4015L723.568 79.0565L723.557 79.0667L723.545 79.0769L732.764 89.4015ZM782.901 80.1889L769.513 76.6772L761.009 109.099L774.398 112.61L787.786 116.122L796.29 83.7005L782.901 80.1889ZM774.398 112.61L781.265 100.593C777.253 98.3005 772.536 96.6431 767.311 96.6431V110.484V124.325C766.96 124.325 766.771 124.268 766.788 124.273C766.819 124.282 767.063 124.361 767.53 124.628L774.398 112.61ZM767.311 110.484V96.6431C760.167 96.6431 752.972 98.6869 747.171 103.983L756.504 114.205L765.836 124.426C765.748 124.507 765.67 124.529 765.748 124.502C765.868 124.46 766.334 124.325 767.311 124.325V110.484ZM756.504 114.205L747.422 103.76C741.041 109.308 738.588 116.862 738.588 124.303H752.429H766.27C766.27 123.54 766.389 123.419 766.283 123.68C766.23 123.811 766.139 123.991 766 124.187C765.86 124.384 765.712 124.54 765.586 124.649L756.504 114.205ZM752.429 124.303H738.588C738.588 131.215 740.839 138.642 747.303 143.924C753.233 148.769 760.583 150.014 766.957 150.014V136.173V122.332C765.432 122.332 764.586 122.172 764.238 122.077C763.92 121.99 764.252 122.025 764.818 122.487C765.099 122.716 765.379 123.005 765.628 123.344C765.876 123.682 766.045 124.004 766.153 124.268C766.363 124.784 766.27 124.896 766.27 124.303H752.429ZM766.957 136.173V150.014C770.477 150.014 774.188 149.751 777.609 148.838L774.043 135.465L770.477 122.091C770.482 122.089 770.211 122.159 769.566 122.224C768.936 122.287 768.079 122.332 766.957 122.332V136.173ZM774.043 135.465L760.495 138.297L767.05 169.655L780.598 166.823L794.147 163.991L787.591 132.632L774.043 135.465ZM780.598 166.823L778.281 153.177C772.085 154.229 768.532 154.576 766.957 154.576V168.417V182.258C771.051 182.258 776.592 181.542 782.916 180.469L780.598 166.823ZM766.957 168.417V154.576C755.42 154.576 747.238 151.213 741.114 145.327L731.523 155.307L721.933 165.287C733.998 176.882 749.438 182.258 766.957 182.258V168.417ZM731.523 155.307L741.114 145.327C735.131 139.577 731.723 131.812 731.723 120.583H717.882H704.041C704.041 138.172 709.727 153.557 721.933 165.287L731.523 155.307ZM717.882 120.583H731.723C731.723 113.075 734.625 106.295 741.982 99.726L732.764 89.4015L723.545 79.0769C711.06 90.2247 704.041 104.232 704.041 120.583H717.882ZM732.764 89.4015L741.959 99.7464C749.137 93.3662 756.775 90.4866 765.362 90.4866V76.6456V62.8045C749.618 62.8045 735.524 68.4289 723.568 79.0565L732.764 89.4015ZM765.362 76.6456V90.4866C769.371 90.4866 773.446 91.279 777.671 93.0036L782.901 80.1889L788.132 67.3742C780.782 64.3744 773.164 62.8045 765.362 62.8045V76.6456ZM881.537 167V180.841H904.447L893.789 160.561L881.537 167ZM842.561 167L829.949 172.704L833.63 180.841H842.561V167ZM826.616 131.744L839.227 126.04L812.775 131.744H826.616ZM826.616 167V180.841H840.457V167H826.616ZM791.36 167H777.519V180.841H791.36V167ZM791.36 74.8739H805.201V61.0328H791.36V74.8739ZM783.033 74.8739L769.593 71.5666L765.373 88.715H783.033V74.8739ZM791.36 41.0353V27.1942H780.512L777.92 37.728L791.36 41.0353ZM826.616 41.0353H840.457V27.1942H826.616V41.0353ZM826.616 105.169H812.775L838.979 111.392L826.616 105.169ZM840.08 78.4172V64.5762H831.551L827.717 72.1946L840.08 78.4172ZM877.285 78.4172L889.51 84.9082L900.306 64.5762H877.285V78.4172ZM856.025 118.457L843.801 111.966L840.372 118.423L843.773 124.896L856.025 118.457ZM881.537 167V153.159H842.561V167V180.841H881.537V167ZM842.561 167L855.172 161.296L839.227 126.04L826.616 131.744L814.004 137.448L829.949 172.704L842.561 167ZM826.616 131.744H812.775V167H826.616H840.457V131.744H826.616ZM826.616 167V153.159H791.36V167V180.841H826.616V167ZM791.36 167H805.201V74.8739H791.36H777.519V167H791.36ZM791.36 74.8739V61.0328H783.033V74.8739V88.715H791.36V74.8739ZM783.033 74.8739L796.473 78.1812L804.8 44.3425L791.36 41.0353L777.92 37.728L769.593 71.5666L783.033 74.8739ZM791.36 41.0353V54.8763H826.616V41.0353V27.1942H791.36V41.0353ZM826.616 41.0353H812.775V105.169H826.616H840.457V41.0353H826.616ZM826.616 105.169L838.979 111.392L852.444 84.6399L840.08 78.4172L827.717 72.1946L814.252 98.9466L826.616 105.169ZM840.08 78.4172V92.2583H877.285V78.4172V64.5762H840.08V78.4172ZM877.285 78.4172L865.06 71.9263L843.801 111.966L856.025 118.457L868.25 124.948L889.51 84.9082L877.285 78.4172ZM856.025 118.457L843.773 124.896L869.285 173.439L881.537 167L893.789 160.561L868.277 112.018L856.025 118.457Z" fill="black" mask="url(#path-1-outside-1_43_2)"/>
</g>
<defs>
<clipPath id="clip0_43_2">
<rect width="880" height="209" fill="white"/>
</clipPath>
</defs>
</svg>
